<?xml version="1.0" encoding="UTF-8"?>
<svg version="1.1" xmlns="http://www.w3.org/2000/svg" width="178" height="80">
<path d="M0 0 C1.03769531 -0.03738281 2.07539062 -0.07476563 3.14453125 -0.11328125 C11.75095109 -0.21220562 11.75095109 -0.21220562 15.421875 2.7109375 C18.93021542 6.72551497 18.87100835 9.63215554 18.84765625 14.79296875 C18.84443359 16.04658203 18.84121094 17.30019531 18.83789062 18.59179688 C18.82532227 20.55729492 18.82532227 20.55729492 18.8125 22.5625 C18.80748317 23.89778481 18.80292059 25.23307141 18.79882812 26.56835938 C18.78702695 29.83728473 18.77056297 33.10611991 18.75 36.375 C14.58750393 36.49922509 10.4260083 36.58962647 6.26220703 36.6496582 C4.84795318 36.67469925 3.43382743 36.70874342 2.02001953 36.75219727 C-11.25403352 37.14976404 -11.25403352 37.14976404 -15.1484375 33.98046875 C-19.10648116 29.07337745 -18.5387318 24.7421998 -18.625 18.625 C-18.66238281 17.635 -18.69976562 16.645 -18.73828125 15.625 C-18.83716573 7.40660116 -18.83716573 7.40660116 -15.8515625 3.734375 C-10.97535419 -0.68789199 -6.33982503 0.08535872 0 0 Z M-9.25 9.375 C-9.25 15.315 -9.25 21.255 -9.25 27.375 C-5.94428083 29.02785959 -2.254622 28.4755118 1.375 28.4375 C5.520625 28.4065625 5.520625 28.4065625 9.75 28.375 C9.75 22.105 9.75 15.835 9.75 9.375 C6.71570323 7.85785161 3.57398333 8.23136084 0.25 8.25 C-0.43964844 8.24613281 -1.12929687 8.24226563 -1.83984375 8.23828125 C-5.67166214 8.18459134 -5.67166214 8.18459134 -9.25 9.375 Z " fill="#AA0EC1" transform="translate(65.25,21.625)"/>
<path d="M0 0 C1.02867187 -0.02835938 2.05734375 -0.05671875 3.1171875 -0.0859375 C11.57697789 -0.10774108 11.57697789 -0.10774108 15.2890625 2.90625 C19.59499783 7.68742234 18.91256745 12.05023753 19 18.25 C19.05607422 19.735 19.05607422 19.735 19.11328125 21.25 C19.21216573 29.46839884 19.21216573 29.46839884 16.2265625 33.140625 C12.23477784 36.76080208 10.19768592 36.6200533 4.8671875 36.59765625 C3.87261032 36.59553383 3.87261032 36.59553383 2.85794067 36.59336853 C0.73858137 36.58776754 -1.38067259 36.575215 -3.5 36.5625 C-4.93619639 36.55748512 -6.37239444 36.55292219 -7.80859375 36.54882812 C-11.33076345 36.53779782 -14.85287145 36.52053259 -18.375 36.5 C-18.46219631 31.93762069 -18.51545922 27.37545614 -18.5625 22.8125 C-18.58763672 21.51892578 -18.61277344 20.22535156 -18.63867188 18.89257812 C-18.64833984 17.64541016 -18.65800781 16.39824219 -18.66796875 15.11328125 C-18.6836792 13.96641846 -18.69938965 12.81955566 -18.71557617 11.63793945 C-18.23597944 7.21911734 -16.69060611 4.760056 -13.51318359 1.71679688 C-9.37338038 -0.63908109 -4.6485397 -0.01156353 0 0 Z M-9.375 9.5 C-9.375 15.77 -9.375 22.04 -9.375 28.5 C-6.61125 28.520625 -3.8475 28.54125 -1 28.5625 C-0.13068848 28.571604 0.73862305 28.58070801 1.63427734 28.59008789 C5.7606356 28.7142327 5.7606356 28.7142327 9.625 27.5 C9.625 21.56 9.625 15.62 9.625 9.5 C6.59070323 7.98285161 3.44898333 8.35636084 0.125 8.375 C-0.56464844 8.37113281 -1.25429687 8.36726563 -1.96484375 8.36328125 C-5.79666214 8.30959134 -5.79666214 8.30959134 -9.375 9.5 Z " fill="#6110EC" transform="translate(159.375,21.5)"/>
<path d="M0 0 C1.02867188 -0.02835938 2.05734375 -0.05671875 3.1171875 -0.0859375 C11.57697789 -0.10774108 11.57697789 -0.10774108 15.2890625 2.90625 C19.59499783 7.68742234 18.91256745 12.05023753 19 18.25 C19.05607422 19.735 19.05607422 19.735 19.11328125 21.25 C19.21216573 29.46839884 19.21216573 29.46839884 16.2265625 33.140625 C12.23477784 36.76080208 10.19768592 36.6200533 4.8671875 36.59765625 C3.87261032 36.59553383 3.87261032 36.59553383 2.85794067 36.59336853 C0.73858137 36.58776754 -1.38067259 36.575215 -3.5 36.5625 C-4.93619639 36.55748512 -6.37239444 36.55292219 -7.80859375 36.54882812 C-11.33076345 36.53779782 -14.85287145 36.52053259 -18.375 36.5 C-18.46219631 31.93762069 -18.51545922 27.37545614 -18.5625 22.8125 C-18.58763672 21.51892578 -18.61277344 20.22535156 -18.63867188 18.89257812 C-18.64833984 17.64541016 -18.65800781 16.39824219 -18.66796875 15.11328125 C-18.6836792 13.96641846 -18.69938965 12.81955566 -18.71557617 11.63793945 C-18.23597944 7.21911734 -16.69060611 4.760056 -13.51318359 1.71679688 C-9.37338038 -0.63908109 -4.6485397 -0.01156353 0 0 Z M-9.375 9.5 C-9.375 15.77 -9.375 22.04 -9.375 28.5 C-6.61125 28.520625 -3.8475 28.54125 -1 28.5625 C-0.13068848 28.571604 0.73862305 28.58070801 1.63427734 28.59008789 C5.7606356 28.7142327 5.7606356 28.7142327 9.625 27.5 C9.625 21.56 9.625 15.62 9.625 9.5 C6.59070323 7.98285161 3.44898333 8.35636084 0.125 8.375 C-0.56464844 8.37113281 -1.25429687 8.36726563 -1.96484375 8.36328125 C-5.79666214 8.30959134 -5.79666214 8.30959134 -9.375 9.5 Z " fill="#970ECC" transform="translate(112.375,21.5)"/>
<path d="M0 0 C0.99837891 -0.020625 1.99675781 -0.04125 3.02539062 -0.0625 C12.46646782 -0.11281887 12.46646782 -0.11281887 16.1875 3.25 C19.08672066 7.21979028 19.54726407 9.98722317 19.48046875 14.86328125 C19.4659668 16.7340332 19.4659668 16.7340332 19.45117188 18.64257812 C19.42603516 19.93615234 19.40089844 21.22972656 19.375 22.5625 C19.35469727 24.53186523 19.35469727 24.53186523 19.33398438 26.54101562 C19.29867443 29.77776077 19.2493528 33.01367105 19.1875 36.25 C15.02500393 36.37422509 10.8635083 36.46462647 6.69970703 36.5246582 C5.28545318 36.54969925 3.87132743 36.58374342 2.45751953 36.62719727 C-10.81653352 37.02476404 -10.81653352 37.02476404 -14.7109375 33.85546875 C-18.66898116 28.94837745 -18.1012318 24.6171998 -18.1875 18.5 C-18.22488281 17.51 -18.26226563 16.52 -18.30078125 15.5 C-18.39966573 7.28160116 -18.39966573 7.28160116 -15.4140625 3.609375 C-10.60535018 -0.75167941 -6.24569217 0.03188611 0 0 Z M-8.8125 9.25 C-8.8125 15.19 -8.8125 21.13 -8.8125 27.25 C-5.50678083 28.90285959 -1.817122 28.3505118 1.8125 28.3125 C5.958125 28.2815625 5.958125 28.2815625 10.1875 28.25 C10.1875 21.98 10.1875 15.71 10.1875 9.25 C7.15320323 7.73285161 4.01148333 8.10636084 0.6875 8.125 C-0.00214844 8.12113281 -0.69179688 8.11726563 -1.40234375 8.11328125 C-5.23416214 8.05959134 -5.23416214 8.05959134 -8.8125 9.25 Z " fill="#D70DA6" transform="translate(17.8125,21.75)"/>
<path d="M0 0 C4.49392502 1.37314376 6.57337569 2.96071341 9 7 C9.61583406 10.6547759 9.60384246 14.23856575 9.5625 17.9375 C9.59827148 19.40219727 9.59827148 19.40219727 9.63476562 20.89648438 C9.62536072 25.52056341 9.57967081 28.94412858 6.58984375 32.62890625 C2.61216479 36.27061232 0.57415093 36.12005946 -4.7578125 36.09765625 C-5.75238968 36.09553383 -5.75238968 36.09553383 -6.76705933 36.09336853 C-8.88641863 36.08776754 -11.00567259 36.075215 -13.125 36.0625 C-14.56119639 36.05748512 -15.99739444 36.05292219 -17.43359375 36.04882812 C-20.95576345 36.03779782 -24.47787145 36.02053259 -28 36 C-28 35.67 -28 35.34 -28 35 C-23.71 35 -19.42 35 -15 35 C-14.34 32.69 -13.68 30.38 -13 28 C-6.565 27.505 -6.565 27.505 0 27 C0 21.06 0 15.12 0 9 C-0.66 9 -1.32 9 -2 9 C-2.66 7.68 -3.32 6.36 -4 5 C-2.68 3.35 -1.36 1.7 0 0 Z " fill="#840FD7" transform="translate(122,22)"/>
<path d="M0 0 C0.89589844 0.00322266 1.79179688 0.00644531 2.71484375 0.00976562 C4.12056641 0.02233398 4.12056641 0.02233398 5.5546875 0.03515625 C6.49957031 0.03966797 7.44445312 0.04417969 8.41796875 0.04882812 C10.75527137 0.06063268 13.09244811 0.07709866 15.4296875 0.09765625 C15.4296875 0.42765625 15.4296875 0.75765625 15.4296875 1.09765625 C13.7796875 1.09765625 12.1296875 1.09765625 10.4296875 1.09765625 C10.7596875 2.08765625 11.0896875 3.07765625 11.4296875 4.09765625 C9.72139829 6.20399343 8.90820334 7.03567233 6.16796875 7.390625 C5.36746094 7.35582031 4.56695312 7.32101563 3.7421875 7.28515625 C2.93394531 7.25808594 2.12570313 7.23101563 1.29296875 7.203125 C0.67808594 7.16832031 0.06320313 7.13351563 -0.5703125 7.09765625 C-0.5703125 7.75765625 -0.5703125 8.41765625 -0.5703125 9.09765625 C-1.2303125 9.09765625 -1.8903125 9.09765625 -2.5703125 9.09765625 C-2.5295459 9.7839209 -2.4887793 10.47018555 -2.44677734 11.17724609 C-2.2688061 14.2752057 -2.1068643 17.37379891 -1.9453125 20.47265625 C-1.88085938 21.55289063 -1.81640625 22.633125 -1.75 23.74609375 C-1.6984375 24.77734375 -1.646875 25.80859375 -1.59375 26.87109375 C-1.54138184 27.82419434 -1.48901367 28.77729492 -1.43505859 29.75927734 C-1.5703125 32.09765625 -1.5703125 32.09765625 -3.5703125 34.09765625 C-3.2403125 34.75765625 -2.9103125 35.41765625 -2.5703125 36.09765625 C-7.06423752 34.72451249 -9.14368819 33.13694284 -11.5703125 29.09765625 C-12.18614656 25.44288035 -12.17415496 21.8590905 -12.1328125 18.16015625 C-12.15666016 17.18369141 -12.18050781 16.20722656 -12.20507812 15.20117188 C-12.19567322 10.57709284 -12.14998331 7.15352767 -9.16015625 3.46875 C-5.80795581 0.39969168 -4.40863667 -0.02790276 0 0 Z " fill="#C10DB3" transform="translate(58.5703125,21.90234375)"/>
<path d="M0 0 C0 1.32 0 2.64 0 4 C-2 6 -2 6 -4 7 C-4 7.66 -4 8.32 -4 9 C-4.66 9 -5.32 9 -6 9 C-6 14.94 -6 20.88 -6 27 C-3.69 27.33 -1.38 27.66 1 28 C0.125 32.75 0.125 32.75 -1 35 C-4.1875 35.9375 -4.1875 35.9375 -8 36 C-11.03733161 34.30286571 -13.42476985 32.1504603 -15 29 C-15.32060398 25.4238452 -15.32438936 21.83875439 -15.375 18.25 C-15.41238281 17.26 -15.44976562 16.27 -15.48828125 15.25 C-15.58716573 7.03160116 -15.58716573 7.03160116 -12.6015625 3.359375 C-8.25431678 -0.58317217 -5.68341023 -0.09166791 0 0 Z " fill="#E40C9E" transform="translate(15,22)"/>
<path d="M0 0 C1.75570312 0.17982422 1.75570312 0.17982422 3.546875 0.36328125 C4.88492188 0.52376953 4.88492188 0.52376953 6.25 0.6875 C6.58 2.3375 6.91 3.9875 7.25 5.6875 C4.03548731 7.29475635 0.81387464 6.74498185 -2.75 6.6875 C-2.75 7.3475 -2.75 8.0075 -2.75 8.6875 C-3.41 8.6875 -4.07 8.6875 -4.75 8.6875 C-4.80791844 11.81242251 -4.84356746 14.93720766 -4.875 18.0625 C-4.89175781 18.95195313 -4.90851563 19.84140625 -4.92578125 20.7578125 C-4.93544922 22.03398438 -4.93544922 22.03398438 -4.9453125 23.3359375 C-4.96102295 24.51422119 -4.96102295 24.51422119 -4.97705078 25.71630859 C-4.92990127 27.921965 -4.92990127 27.921965 -2.75 29.6875 C-3.41 29.6875 -4.07 29.6875 -4.75 29.6875 C-5.08 31.0075 -5.41 32.3275 -5.75 33.6875 C-8.39 34.3475 -11.03 35.0075 -13.75 35.6875 C-13.83719631 31.12512069 -13.89045922 26.56295614 -13.9375 22 C-13.96263672 20.70642578 -13.98777344 19.41285156 -14.01367188 18.08007812 C-14.02333984 16.83291016 -14.03300781 15.58574219 -14.04296875 14.30078125 C-14.0586792 13.15391846 -14.07438965 12.00705566 -14.09057617 10.82543945 C-13.62163809 6.50482209 -11.95939961 3.94238588 -8.984375 0.85546875 C-5.81928424 -0.79901051 -3.51530189 -0.38668321 0 0 Z " fill="#700FE3" transform="translate(154.75,22.3125)"/>
<path d="M0 0 C2.97 0 5.94 0 9 0 C9 5.28 9 10.56 9 16 C6.03 16 3.06 16 0 16 C0 10.72 0 5.44 0 0 Z " fill="#8F0ED0" transform="translate(94,64)"/>
<path d="M0 0 C2.97 0 5.94 0 9 0 C9 5.28 9 10.56 9 16 C6.03 16 3.06 16 0 16 C0 10.72 0 5.44 0 0 Z " fill="#E00DA1" transform="translate(28,0)"/>
<path d="M0 0 C2.64 0 5.28 0 8 0 C9 1 9 1 9.09765625 4.37890625 C9.09098369 5.77347077 9.07902532 7.16801743 9.0625 8.5625 C9.05798828 9.27341797 9.05347656 9.98433594 9.04882812 10.71679688 C9.03700864 12.47790013 9.01907263 14.23896036 9 16 C6.03 16 3.06 16 0 16 C0 10.72 0 5.44 0 0 Z " fill="#6610EA" transform="translate(141,64)"/>
<path d="M0 0 C6.27 0.33 12.54 0.66 19 1 C19 1.33 19 1.66 19 2 C17.35 2.33 15.7 2.66 14 3 C14.33 4.98 14.66 6.96 15 9 C10.05 9 5.1 9 0 9 C-0.66 7.68 -1.32 6.36 -2 5 C-1.34 4.67 -0.68 4.34 0 4 C0 2.68 0 1.36 0 0 Z " fill="#B30EBC" transform="translate(56,49)"/>
<path d="M0 0 C0.33 0 0.66 0 1 0 C1 4.95 1 9.9 1 15 C2.32 14.67 3.64 14.34 5 14 C7.0815665 9.5081986 7.49600157 4.87198478 8 0 C8.33 0 8.66 0 9 0 C9 5.28 9 10.56 9 16 C6.03 16 3.06 16 0 16 C0 10.72 0 5.44 0 0 Z " fill="#D40BA6" transform="translate(28,0)"/>
<path d="M0 0 C2.64 0 5.28 0 8 0 C5 2 5 2 2 2 C1.67 6.62 1.34 11.24 1 16 C0.67 16 0.34 16 0 16 C0 10.72 0 5.44 0 0 Z " fill="#6E0EE3" transform="translate(141,64)"/>
</svg>
